<svg width="22" height="18" viewBox="0 0 22 18" fill="none" xmlns="http://www.w3.org/2000/svg">
<path d="M2.30616 17.7499C1.71684 17.7499 1.21801 17.5458 0.809676 17.1374C0.401362 16.7291 0.197205 16.2303 0.197205 15.641V2.35898C0.197205 1.76966 0.401362 1.27083 0.809676 0.8625C1.21801 0.454167 1.71684 0.25 2.30616 0.25H15.5881C16.1775 0.25 16.6763 0.454167 17.0846 0.8625C17.493 1.27083 17.6971 1.76966 17.6971 2.35898V7.69873L20.9009 4.49492C21.0729 4.32291 21.2663 4.27991 21.4809 4.36591C21.6955 4.45192 21.8028 4.61607 21.8028 4.85836V13.1416C21.8028 13.3839 21.6955 13.548 21.4809 13.634C21.2663 13.72 21.0729 13.677 20.9009 13.505L17.6971 10.3012V15.641C17.6971 16.2303 17.493 16.7291 17.0846 17.1374C16.6763 17.5458 16.1775 17.7499 15.5881 17.7499H2.30616Z" fill="#375BB9"/>
</svg>
