<svg width="24" height="24" viewBox="0 0 24 24" fill="none" xmlns="http://www.w3.org/2000/svg">
<path d="M12.002 23.0834C10.469 23.0834 9.02816 22.7925 7.67934 22.2107C6.33049 21.6289 5.1572 20.8394 4.15944 19.8421C3.16167 18.8447 2.37177 17.672 1.78974 16.3237C1.20771 14.9755 0.916695 13.5349 0.916695 12.002C0.916695 10.4691 1.20758 9.02821 1.78936 7.67939C2.37114 6.33055 3.16068 5.15725 4.15799 4.1595C5.15531 3.16173 6.32809 2.37183 7.67633 1.7898C9.02455 1.20776 10.4651 0.916748 11.998 0.916748C13.531 0.916748 14.9718 1.20764 16.3207 1.78942C17.6695 2.37119 18.8428 3.16073 19.8406 4.15804C20.8383 5.15536 21.6282 6.32815 22.2103 7.67639C22.7923 9.02461 23.0833 10.4652 23.0833 11.9981C23.0833 13.531 22.7924 14.9719 22.2106 16.3207C21.6289 17.6696 20.8393 18.8429 19.842 19.8406C18.8447 20.8384 17.6719 21.6283 16.3237 22.2103C14.9754 22.7923 13.5349 23.0834 12.002 23.0834ZM12 21.3334C14.6056 21.3334 16.8125 20.4292 18.6208 18.6209C20.4292 16.8126 21.3333 14.6056 21.3333 12.0001C21.3333 9.3945 20.4292 7.18755 18.6208 5.37922C16.8125 3.57089 14.6056 2.66672 12 2.66672C9.39444 2.66672 7.1875 3.57089 5.37917 5.37922C3.57083 7.18755 2.66667 9.3945 2.66667 12.0001C2.66667 14.6056 3.57083 16.8126 5.37917 18.6209C7.1875 20.4292 9.39444 21.3334 12 21.3334Z" fill="#098BED"/>
</svg>
