<svg width="57" height="16" viewBox="0 0 57 16" fill="none" xmlns="http://www.w3.org/2000/svg">
<g clip-path="url(#clip0_1372_6628)">
<path d="M7.97882 15.9999C5.24221 16.0171 1.53306 12.3448 0.480295 9.95901V9.95044L0.458999 9.90187C-0.0748357 8.62325 -0.199066 7.55179 0.38801 6.15102C1.28105 4.01238 5.77818 -0.955653 9.02307 0.161529C11.3423 0.959414 20.8661 6.80462 11.7263 14.2013C10.555 15.1428 9.37162 15.9921 7.97882 15.9999ZM3.87852 9.34685C4.93341 11.2041 7.30798 13.372 9.17072 12.1698C12.9771 9.71329 12.9246 7.34321 10.8794 5.29742C8.50343 2.92163 7.01338 3.32664 5.11869 5.31457C4.67004 5.7853 4.29167 6.09388 3.8409 6.97177C3.51648 7.60679 3.44975 8.59397 3.87852 9.34756V9.34685Z" fill="#53B7D1"/>
<path d="M24.9579 11.1777C25.3186 11.1777 25.6513 11.171 25.9559 11.1578C26.2605 11.1445 26.5737 11.1157 26.8955 11.0715C26.9181 11.0662 26.9417 11.0651 26.9648 11.0684C26.9879 11.0717 27.0101 11.0793 27.03 11.0906C27.0499 11.102 27.0672 11.117 27.0808 11.1347C27.0945 11.1523 27.1041 11.1724 27.1093 11.1936C27.1144 11.2155 27.1144 11.2381 27.1093 11.26V12.2553C27.1093 12.3694 27.0335 12.4488 26.8819 12.4935C26.5098 12.6006 26.1281 12.6759 25.7413 12.7185C25.3309 12.7702 24.9172 12.7968 24.503 12.7981C23.8374 12.8154 23.1744 12.7119 22.5512 12.4935C22.0453 12.3072 21.5993 12.0031 21.2559 11.6103C20.907 11.1943 20.6591 10.7127 20.5295 10.1989C20.37 9.57858 20.2933 8.94228 20.3013 8.30446V7.69531C20.2935 7.05787 20.3677 6.42185 20.5223 5.80084C20.6473 5.28786 20.8906 4.80629 21.2352 4.38945C21.5748 3.99595 22.0188 3.69175 22.5234 3.50692C23.1466 3.28859 23.8096 3.18514 24.4752 3.20234C25.2501 3.20731 26.0196 3.32347 26.7565 3.54673C26.8219 3.56175 26.8813 3.594 26.9275 3.63963C26.9582 3.68279 26.9732 3.73395 26.9703 3.78561V4.73981C26.9778 4.78226 26.967 4.82575 26.9403 4.86088C26.9137 4.89601 26.8732 4.91998 26.8277 4.9276C26.8042 4.93228 26.7799 4.93228 26.7565 4.9276C26.4903 4.89309 26.2009 4.86655 25.8882 4.84797C25.5755 4.82939 25.2575 4.82077 24.9343 4.82209C24.544 4.81205 24.1551 4.87058 23.788 4.99462C23.4873 5.10388 23.2275 5.29282 23.0409 5.53807C22.8355 5.81894 22.6972 6.13753 22.6353 6.47237C22.548 6.9115 22.5074 7.35758 22.5141 7.80413V8.21488C22.5072 8.65961 22.549 9.10383 22.6389 9.54067C22.7053 9.87487 22.8486 10.1918 23.0588 10.4697C23.2532 10.712 23.5174 10.8982 23.8208 11.0065C24.1862 11.1295 24.573 11.1878 24.9614 11.1783L24.9579 11.1777ZM28.7596 3.57128C28.7596 3.42928 28.8309 3.35894 28.9735 3.35894H30.7386C30.7913 3.35193 30.8449 3.36469 30.8875 3.39443C30.9302 3.42417 30.9584 3.46844 30.966 3.51753C30.9688 3.53535 30.9688 3.55346 30.966 3.57128V10.4219C30.9504 10.6211 31.0001 10.8201 31.1086 10.9925C31.1835 11.0639 31.2753 11.1179 31.3767 11.1502C31.4781 11.1824 31.5863 11.1921 31.6924 11.1783H35.0657C35.0919 11.1748 35.1185 11.1761 35.1441 11.1821C35.1697 11.1882 35.1938 11.1989 35.2149 11.2136C35.236 11.2283 35.2538 11.2468 35.2672 11.268C35.2807 11.2892 35.2895 11.3126 35.2932 11.3369C35.296 11.3545 35.296 11.3724 35.2932 11.39V12.3708C35.2932 12.5384 35.2126 12.6269 35.0515 12.6362C34.5287 12.6804 33.9308 12.718 33.2579 12.749C32.5849 12.78 31.8873 12.7954 31.1649 12.7954C30.7843 12.802 30.4043 12.7663 30.0328 12.6893C29.7582 12.6342 29.5017 12.5186 29.285 12.3522C29.0912 12.1909 28.9505 11.9818 28.8794 11.749C28.7917 11.4513 28.7511 11.1432 28.7589 10.8346L28.7596 3.57128ZM38.8255 12.4099C38.8302 12.4406 38.8273 12.4718 38.8168 12.5012C38.8063 12.5307 38.7886 12.5574 38.765 12.5793C38.7415 12.6012 38.7128 12.6177 38.6812 12.6274C38.6496 12.6372 38.616 12.64 38.5831 12.6355H36.8608C36.833 12.6393 36.8046 12.6379 36.7774 12.6315C36.7502 12.625 36.7246 12.6136 36.7021 12.598C36.6796 12.5823 36.6606 12.5627 36.6462 12.5402C36.6319 12.5178 36.6224 12.4929 36.6184 12.467C36.6155 12.448 36.6155 12.4288 36.6184 12.4099V3.59782C36.6184 3.43857 36.6992 3.35894 36.8608 3.35894H38.5831C38.7447 3.35894 38.8255 3.43857 38.8255 3.59782V12.4099ZM45.488 11.1777C45.8497 11.1777 46.1824 11.171 46.486 11.1578C46.7897 11.1445 47.1029 11.1157 47.4256 11.0715C47.4483 11.0662 47.4719 11.0651 47.495 11.0684C47.5181 11.0717 47.5402 11.0793 47.5602 11.0906C47.5801 11.102 47.5974 11.117 47.611 11.1347C47.6246 11.1523 47.6343 11.1724 47.6395 11.1936C47.6437 11.2144 47.6437 11.2358 47.6395 11.2566V12.252C47.6395 12.3668 47.5639 12.4464 47.4114 12.4909C47.0392 12.5976 46.6574 12.6729 46.2707 12.7158C45.86 12.7669 45.4462 12.7935 45.0318 12.7954C44.3663 12.8121 43.7037 12.7084 43.0806 12.4902C42.5751 12.3048 42.1292 12.0019 41.7853 11.6103C41.4374 11.194 41.1903 10.7125 41.061 10.1989C40.9015 9.57858 40.8249 8.94228 40.8329 8.30446V7.69464C40.8251 7.05721 40.8993 6.42119 41.0539 5.80018C41.1792 5.28729 41.4224 4.80577 41.7668 4.38879C42.1064 3.99549 42.5504 3.69151 43.055 3.50692C43.678 3.28871 44.3406 3.18505 45.0061 3.20168C45.7811 3.20655 46.5506 3.32295 47.2873 3.54673C47.3527 3.56175 47.4121 3.594 47.4584 3.63963C47.489 3.68256 47.504 3.7335 47.5012 3.78495V4.73583C47.5086 4.77828 47.4979 4.82177 47.4712 4.8569C47.4445 4.89203 47.4041 4.916 47.3586 4.92362C47.3351 4.92795 47.3108 4.92795 47.2873 4.92362C47.0212 4.88911 46.7317 4.86257 46.419 4.84399C46.1063 4.82541 45.7884 4.81678 45.4652 4.81811C45.0749 4.80747 44.6859 4.86579 44.3189 4.98997C44.0181 5.09946 43.7582 5.28835 43.5711 5.53343C43.3668 5.81485 43.2286 6.13321 43.1655 6.46772C43.0787 6.90714 43.0383 7.35341 43.045 7.80015V8.2109C43.0378 8.65673 43.0796 9.10209 43.1697 9.54001C43.2358 9.8743 43.3791 10.1913 43.5896 10.469C43.7838 10.7114 44.0481 10.8974 44.3517 11.0051C44.7169 11.1288 45.1038 11.1873 45.4923 11.1777H45.488ZM56.4371 3.35894C56.4686 3.35605 56.5003 3.36203 56.5282 3.3761C56.556 3.39018 56.5787 3.41171 56.5932 3.4379C56.6068 3.46611 56.6115 3.49738 56.6065 3.52797C56.6016 3.55856 56.5873 3.58719 56.5654 3.61043L53.5186 7.82802L56.9646 12.4C56.9829 12.4211 56.9945 12.4466 56.9982 12.4735C57.0018 12.5005 56.9974 12.5278 56.9853 12.5526C56.9721 12.5816 56.9489 12.6058 56.9194 12.6213C56.8898 12.6368 56.8556 12.6427 56.822 12.6382H54.8146C54.7319 12.6422 54.6493 12.6288 54.5729 12.599C54.5074 12.5645 54.4531 12.5141 54.4161 12.453L51.4976 8.31839V12.4132C51.5055 12.4655 51.4908 12.5185 51.4567 12.5607C51.4226 12.6029 51.3719 12.6308 51.3158 12.6382C51.2959 12.6408 51.2758 12.6408 51.2559 12.6382H49.5329C49.4767 12.6456 49.4197 12.6319 49.3744 12.6001C49.3291 12.5684 49.2992 12.5212 49.2912 12.469C49.2876 12.4505 49.2876 12.4317 49.2912 12.4132V3.59716C49.2912 3.4379 49.3718 3.35828 49.5329 3.35828H51.2559C51.417 3.35828 51.4976 3.4379 51.4976 3.59716V7.33367L54.2193 3.51488C54.2557 3.46544 54.3045 3.42511 54.3616 3.39744C54.4187 3.36978 54.4822 3.35564 54.5465 3.35629L56.4371 3.35894Z" fill="#141521"/>
</g>
<defs>
<clipPath id="clip0_1372_6628">
<rect width="57" height="16" fill="white"/>
</clipPath>
</defs>
</svg>
