<svg width="26" height="26" viewBox="0 0 26 26" fill="none" xmlns="http://www.w3.org/2000/svg">
<path d="M6.98132 18.2353C6.66188 18.0575 6.41154 17.8177 6.2303 17.5158C6.04904 17.2139 5.95841 16.8753 5.95841 16.4999V11.7999L3.79594 10.6041C3.61816 10.5028 3.48761 10.3794 3.40429 10.2341C3.32096 10.0888 3.2793 9.92732 3.2793 9.74971C3.2793 9.57211 3.32096 9.41075 3.40429 9.26562C3.48761 9.12047 3.61816 8.99721 3.79594 8.89583L12.0673 4.38916C12.2141 4.30751 12.3654 4.24759 12.5209 4.20941C12.6765 4.1712 12.8362 4.1521 13 4.1521C13.1638 4.1521 13.3235 4.1712 13.4792 4.20941C13.6347 4.24759 13.7861 4.30742 13.9332 4.38889L23.275 9.47289C23.4416 9.56317 23.5694 9.68528 23.6583 9.83922C23.7472 9.99314 23.7916 10.1592 23.7916 10.3375V16.7291C23.7916 16.9593 23.7137 17.1523 23.5579 17.308C23.4021 17.4637 23.2091 17.5416 22.9788 17.5416C22.7485 17.5416 22.5555 17.4637 22.4 17.308C22.2444 17.1523 22.1667 16.9593 22.1667 16.7291V10.65L20.0417 11.7999V16.4999C20.0417 16.8753 19.9511 17.2139 19.7698 17.5158C19.5886 17.8177 19.3382 18.0575 19.0188 18.2353L13.9355 20.9832C13.7868 21.0666 13.6347 21.1273 13.4792 21.1655C13.3235 21.2037 13.1638 21.2228 13 21.2228C12.8362 21.2228 12.6765 21.2037 12.5209 21.1655C12.3654 21.1273 12.2133 21.0666 12.0646 20.9832L6.98132 18.2353ZM12.875 13.6958C12.9237 13.7236 12.9671 13.7375 13.0052 13.7375C13.0435 13.7375 13.0869 13.7236 13.1355 13.6958L20.4105 9.74998L13.1355 5.81458C13.0869 5.78679 13.0435 5.7729 13.0052 5.7729C12.9671 5.7729 12.9237 5.78679 12.875 5.81458L5.58964 9.74998L12.875 13.6958ZM12.8646 19.577C12.9132 19.6048 12.9584 19.6187 13 19.6187C13.0417 19.6187 13.0869 19.6048 13.1355 19.577L18.2604 16.8083C18.316 16.7736 18.3559 16.7336 18.3803 16.6885C18.4046 16.6433 18.4167 16.586 18.4167 16.5166V12.6666L13.9521 15.1187C13.8035 15.202 13.6494 15.2628 13.4896 15.301C13.3299 15.3392 13.1667 15.3583 13 15.3583C12.8334 15.3583 12.6702 15.3392 12.5105 15.301C12.3507 15.2628 12.1966 15.202 12.048 15.1187L7.58338 12.6666V16.5166C7.58338 16.5721 7.59553 16.626 7.61983 16.6781C7.64416 16.7302 7.68409 16.7736 7.73965 16.8083L12.8646 19.577Z" fill="#7784A4"/>
</svg>
