<svg width="24" height="24" viewBox="0 0 24 24" fill="none" xmlns="http://www.w3.org/2000/svg">
<path d="M10.3442 14.5039L7.63395 11.7936C7.47243 11.6321 7.26939 11.5494 7.02484 11.5457C6.78028 11.5419 6.5735 11.6246 6.40449 11.7936C6.23548 11.9626 6.15097 12.1675 6.15097 12.4083C6.15097 12.6491 6.23548 12.854 6.40449 13.023L9.60609 16.2246C9.81698 16.4355 10.063 16.541 10.3442 16.541C10.6254 16.541 10.8715 16.4355 11.0824 16.2246L17.573 9.73395C17.7346 9.57242 17.8172 9.36938 17.821 9.12483C17.8247 8.88028 17.7421 8.67349 17.573 8.50448C17.404 8.33547 17.1991 8.25097 16.9583 8.25097C16.7175 8.25097 16.5126 8.33547 16.3436 8.50448L10.3442 14.5039ZM12.002 23.0833C10.469 23.0833 9.02816 22.7924 7.67934 22.2106C6.33049 21.6289 5.1572 20.8393 4.15944 19.842C3.16167 18.8447 2.37177 17.6719 1.78974 16.3237C1.20771 14.9754 0.916695 13.5349 0.916695 12.0019C0.916695 10.469 1.20758 9.02815 1.78936 7.67933C2.37114 6.33049 3.16068 5.15719 4.15799 4.15944C5.15531 3.16167 6.32809 2.37176 7.67633 1.78973C9.02455 1.2077 10.4651 0.916687 11.998 0.916687C13.531 0.916687 14.9718 1.20758 16.3207 1.78936C17.6695 2.37113 18.8428 3.16067 19.8406 4.15798C20.8383 5.1553 21.6282 6.32809 22.2103 7.67633C22.7923 9.02455 23.0833 10.4651 23.0833 11.998C23.0833 13.531 22.7924 14.9718 22.2106 16.3207C21.6289 17.6695 20.8393 18.8428 19.842 19.8405C18.8447 20.8383 17.6719 21.6282 16.3237 22.2103C14.9754 22.7923 13.5349 23.0833 12.002 23.0833ZM12 21.3333C14.6056 21.3333 16.8125 20.4292 18.6208 18.6208C20.4292 16.8125 21.3333 14.6055 21.3333 12C21.3333 9.39444 20.4292 7.18749 18.6208 5.37916C16.8125 3.57083 14.6056 2.66666 12 2.66666C9.39444 2.66666 7.1875 3.57083 5.37917 5.37916C3.57083 7.18749 2.66667 9.39444 2.66667 12C2.66667 14.6055 3.57083 16.8125 5.37917 18.6208C7.1875 20.4292 9.39444 21.3333 12 21.3333Z" fill="#098BED"/>
</svg>
