<svg width="13" height="14" viewBox="0 0 13 14" fill="none" xmlns="http://www.w3.org/2000/svg">
<path d="M6.58329 9.84292C6.48286 9.84292 6.38938 9.82689 6.30285 9.79483C6.21631 9.76279 6.13405 9.70777 6.05606 9.62977L3.46473 7.03846C3.3408 6.91453 3.27964 6.7695 3.28125 6.60338C3.28285 6.43725 3.34401 6.28955 3.46473 6.16027C3.59401 6.03101 3.74251 5.96424 3.91023 5.95996C4.07797 5.95568 4.22647 6.01818 4.35575 6.14746L5.95831 7.75002V1.375C5.95831 1.19765 6.01814 1.04915 6.13779 0.929501C6.25744 0.809834 6.40594 0.75 6.58329 0.75C6.76064 0.75 6.90914 0.809834 7.02879 0.929501C7.14845 1.04915 7.20827 1.19765 7.20827 1.375V7.75002L8.81083 6.14746C8.93476 6.02353 9.08193 5.96236 9.25233 5.96396C9.42274 5.96557 9.57258 6.03101 9.70185 6.16027C9.82258 6.28955 9.88507 6.43592 9.88933 6.59938C9.89361 6.76283 9.83112 6.90919 9.70185 7.03846L7.11052 9.62977C7.03254 9.70777 6.95027 9.76279 6.86373 9.79483C6.7772 9.82689 6.68372 9.84292 6.58329 9.84292ZM1.83973 13.25C1.41879 13.25 1.06248 13.1041 0.770813 12.8125C0.479146 12.5208 0.333313 12.1645 0.333313 11.7435V10.1089C0.333313 9.93159 0.393146 9.78309 0.512813 9.66344C0.632466 9.54379 0.780966 9.48396 0.958313 9.48396C1.13566 9.48396 1.28416 9.54379 1.40381 9.66344C1.52347 9.78309 1.58329 9.93159 1.58329 10.1089V11.7435C1.58329 11.8077 1.61 11.8664 1.66342 11.9199C1.71685 11.9733 1.77562 12 1.83973 12H11.3269C11.391 12 11.4497 11.9733 11.5032 11.9199C11.5566 11.8664 11.5833 11.8077 11.5833 11.7435V10.1089C11.5833 9.93159 11.6431 9.78309 11.7628 9.66344C11.8824 9.54379 12.0309 9.48396 12.2083 9.48396C12.3856 9.48396 12.5341 9.54379 12.6538 9.66344C12.7734 9.78309 12.8333 9.93159 12.8333 10.1089V11.7435C12.8333 12.1645 12.6874 12.5208 12.3958 12.8125C12.1041 13.1041 11.7478 13.25 11.3269 13.25H1.83973Z" fill="white"/>
</svg>
