<svg width="17" height="18" viewBox="0 0 17 18" fill="none" xmlns="http://www.w3.org/2000/svg">
<path fill-rule="evenodd" clip-rule="evenodd" d="M11.8868 0.21967C11.7462 0.0790201 11.5554 0 11.3565 0C11.1576 0 10.9668 0.0790201 10.8262 0.21967L1.63375 9.4121C1.53952 9.5063 1.4721 9.6239 1.43843 9.7528L0.438425 13.5813C0.371135 13.8389 0.445475 14.1129 0.633745 14.3011C0.822015 14.4894 1.09601 14.5638 1.35362 14.4965L5.18205 13.4965C5.31098 13.4628 5.42861 13.3954 5.52284 13.3011L14.7153 4.10876C15.0081 3.81586 15.0081 3.34099 14.7153 3.0481L11.8868 0.21967ZM2.83829 10.3288L11.3565 1.81066L13.1243 3.57843L4.60607 12.0966L2.2133 12.7216L2.83829 10.3288Z" fill="#375BB9"/>
<path d="M0.75 16C0.33579 16 0 16.3358 0 16.75C0 17.1642 0.33579 17.5 0.75 17.5H15.75C16.1642 17.5 16.5 17.1642 16.5 16.75C16.5 16.3358 16.1642 16 15.75 16H0.75Z" fill="#375BB9"/>
</svg>
