<svg width="24" height="24" viewBox="0 0 24 24" fill="none" xmlns="http://www.w3.org/2000/svg">
<path fill-rule="evenodd" clip-rule="evenodd" d="M13.6641 6.34314C13.6641 6.75736 13.9999 7.09314 14.4141 7.09314H16.9068V9.58579C16.9068 10 17.2425 10.3358 17.6568 10.3358C18.071 10.3358 18.4068 10 18.4068 9.58579V6.34315C18.4068 5.92893 18.071 5.59315 17.6568 5.59315L14.4141 5.59314C13.9999 5.59314 13.6641 5.92893 13.6641 6.34314Z" fill="white"/>
<path fill-rule="evenodd" clip-rule="evenodd" d="M17.6567 13.6642C17.2425 13.6642 16.9067 14 16.9067 14.4142V16.9068H14.4141C13.9999 16.9068 13.6641 17.2426 13.6641 17.6568C13.6641 18.0711 13.9999 18.4068 14.4141 18.4068H17.6567C18.0709 18.4068 18.4067 18.0711 18.4067 17.6568V14.4142C18.4067 14 18.0709 13.6642 17.6567 13.6642Z" fill="white"/>
<path fill-rule="evenodd" clip-rule="evenodd" d="M6.34277 13.6642C6.75698 13.6642 7.09277 14 7.09277 14.4142V16.9068H9.58541C9.99962 16.9068 10.3354 17.2426 10.3354 17.6568C10.3354 18.0711 9.99962 18.4068 9.58541 18.4068H6.34277C5.92855 18.4068 5.59277 18.0711 5.59277 17.6568V14.4142C5.59277 14 5.92855 13.6642 6.34277 13.6642Z" fill="white"/>
<path fill-rule="evenodd" clip-rule="evenodd" d="M10.3355 6.34314C10.3355 6.75736 9.99962 7.09314 9.58541 7.09314H7.09277V9.58579C7.09277 10 6.75698 10.3358 6.34277 10.3358C5.92856 10.3358 5.59277 10 5.59277 9.58579V6.34314C5.59277 5.92893 5.92856 5.59314 6.34277 5.59314H9.58541C9.99962 5.59314 10.3355 5.92893 10.3355 6.34314Z" fill="white"/>
</svg>
