<svg width="20" height="18" viewBox="0 0 20 18" fill="none" xmlns="http://www.w3.org/2000/svg">
<path d="M2 2V16H18V2H2ZM1 0H19C19.2652 0 19.5196 0.105357 19.7071 0.292893C19.8946 0.48043 20 0.734784 20 1V17C20 17.2652 19.8946 17.5196 19.7071 17.7071C19.5196 17.8946 19.2652 18 19 18H1C0.734784 18 0.48043 17.8946 0.292893 17.7071C0.105357 17.5196 0 17.2652 0 17V1C0 0.734784 0.105357 0.48043 0.292893 0.292893C0.48043 0.105357 0.734784 0 1 0ZM5.5 8.25H7.5V6H9V12H7.5V9.75H5.5V12H4V6H5.5V8.25ZM12.5 7.5V10.5H14C14.1326 10.5 14.2598 10.4473 14.3536 10.3536C14.4473 10.2598 14.5 10.1326 14.5 10V8C14.5 7.86739 14.4473 7.74021 14.3536 7.64645C14.2598 7.55268 14.1326 7.5 14 7.5H12.5ZM11 6H14C14.5304 6 15.0391 6.21071 15.4142 6.58579C15.7893 6.96086 16 7.46957 16 8V10C16 10.5304 15.7893 11.0391 15.4142 11.4142C15.0391 11.7893 14.5304 12 14 12H11V6Z" fill="white"/>
</svg>
