<svg width="11" height="11" viewBox="0 0 11 11" fill="none" xmlns="http://www.w3.org/2000/svg">
<path d="M5.26236 5.04706C4.58713 5.04706 4.01031 4.80786 3.5319 4.32946C3.05349 3.85106 2.81429 3.27424 2.81429 2.59901C2.81429 1.92377 3.05349 1.34695 3.5319 0.868545C4.01031 0.390142 4.58713 0.15094 5.26236 0.15094C5.93759 0.15094 6.51441 0.390142 6.99283 0.868545C7.47123 1.34695 7.71043 1.92377 7.71043 2.59901C7.71043 3.27424 7.47123 3.85106 6.99283 4.32946C6.51441 4.80786 5.93759 5.04706 5.26236 5.04706ZM1.07909 10.3737C0.784071 10.3737 0.533218 10.2703 0.32653 10.0636C0.119829 9.85693 0.0164795 9.60607 0.0164795 9.31105V8.81874C0.0164795 8.4762 0.109518 8.15898 0.295596 7.8671C0.481663 7.57522 0.730277 7.35081 1.04144 7.19388C1.73283 6.85491 2.43026 6.60069 3.13375 6.43121C3.83724 6.26173 4.54678 6.177 5.26236 6.177C5.97795 6.177 6.68749 6.26173 7.39097 6.43121C8.09446 6.60069 8.7919 6.85491 9.48328 7.19388C9.79445 7.35081 10.0431 7.57522 10.2291 7.8671C10.4152 8.15898 10.5082 8.4762 10.5082 8.81874V9.31105C10.5082 9.60607 10.4049 9.85693 10.1982 10.0636C9.99151 10.2703 9.74065 10.3737 9.44564 10.3737H1.07909Z" fill="#8EABC1"/>
</svg>
