<svg width="13" height="18" viewBox="0 0 13 18" fill="none" xmlns="http://www.w3.org/2000/svg">
<path d="M4.57698 11.5H1.53465C1.19877 11.5 0.952617 11.3513 0.7962 11.0538C0.6398 10.7564 0.659034 10.4699 0.8539 10.1942L7.40575 0.742375C7.54037 0.553925 7.71216 0.425083 7.92112 0.35585C8.13011 0.286616 8.34742 0.292391 8.57305 0.373174C8.79868 0.453941 8.96374 0.592074 9.06822 0.787574C9.17271 0.983091 9.21149 1.19367 9.18458 1.4193L8.43265 7.50002H12.1634C12.5198 7.50002 12.7711 7.65964 12.9173 7.97888C13.0634 8.29811 13.0205 8.59554 12.7884 8.87117L5.54425 17.548C5.39938 17.7198 5.22246 17.831 5.01348 17.8817C4.80451 17.9323 4.60067 17.9121 4.40195 17.8211C4.20323 17.7301 4.04908 17.591 3.93948 17.4038C3.82986 17.2166 3.78851 17.0102 3.81543 16.7845L4.57698 11.5Z" fill="#375BB9"/>
</svg>
