<svg width="21" height="19" viewBox="0 0 21 19" fill="none" xmlns="http://www.w3.org/2000/svg">
<path d="M18.6923 6.50003C19.1679 6.50003 19.5881 6.6824 19.9529 7.04715C20.3176 7.41189 20.5 7.83208 20.5 8.30773V9.92308C20.5 10.0269 20.4891 10.1391 20.4673 10.2596C20.4455 10.3801 20.4128 10.4923 20.3692 10.5962L17.5038 17.3577C17.3602 17.6782 17.1198 17.9487 16.7827 18.1692C16.4455 18.3897 16.0949 18.5 15.7308 18.5H7.6346C7.13588 18.5 6.70993 18.3234 6.35673 17.9702C6.00351 17.617 5.8269 17.191 5.8269 16.6923V7.2481C5.8269 7.00709 5.87626 6.77536 5.97498 6.55293C6.07369 6.3305 6.20511 6.13723 6.36923 5.97313L11.6596 0.717353C11.8583 0.528903 12.0884 0.412879 12.35 0.369279C12.6115 0.325696 12.8621 0.364804 13.1019 0.486604C13.3416 0.608387 13.5147 0.787229 13.6211 1.02313C13.7275 1.25901 13.7487 1.50965 13.6846 1.77503L12.6076 6.50003H18.6923ZM2.30773 18.5C1.80901 18.5 1.38305 18.3234 1.02985 17.9702C0.676633 17.617 0.500025 17.191 0.500025 16.6923V8.30773C0.500025 7.80901 0.676633 7.38305 1.02985 7.02985C1.38305 6.67664 1.80901 6.50003 2.30773 6.50003H2.51927C3.01799 6.50003 3.44395 6.67664 3.79715 7.02985C4.15035 7.38305 4.32695 7.80901 4.32695 8.30773V16.7019C4.32695 17.2006 4.15035 17.625 3.79715 17.975C3.44395 18.325 3.01799 18.5 2.51927 18.5H2.30773Z" fill="#375BB9"/>
</svg>
