<svg width="14" height="17" viewBox="0 0 14 17" fill="none" xmlns="http://www.w3.org/2000/svg">
<path d="M1.57595 17C1.14117 17 0.76982 16.846 0.461901 16.5381C0.153967 16.2302 0 15.8588 0 15.424V7.2426C0 6.80782 0.153967 6.43647 0.461901 6.12855C0.76982 5.82062 1.14117 5.66665 1.57595 5.66665H2.6154V3.92305C2.6154 2.83444 2.99709 1.90844 3.76046 1.14506C4.52385 0.381687 5.44986 -1.90735e-06 6.53847 -1.90735e-06C7.62709 -1.90735e-06 8.55309 0.381687 9.31648 1.14506C10.0799 1.90844 10.4615 2.83444 10.4615 3.92305V5.66665H11.501C11.9358 5.66665 12.3071 5.82062 12.615 6.12855C12.923 6.43647 13.0769 6.80782 13.0769 7.2426V15.424C13.0769 15.8588 12.923 16.2302 12.615 16.5381C12.3071 16.846 11.9358 17 11.501 17H1.57595ZM1.57595 15.6923H11.501C11.5792 15.6923 11.6435 15.6672 11.6938 15.6169C11.7441 15.5666 11.7693 15.5023 11.7693 15.424V7.2426C11.7693 7.16436 11.7441 7.10008 11.6938 7.04978C11.6435 6.99948 11.5792 6.97433 11.501 6.97433H1.57595C1.49771 6.97433 1.43343 6.99948 1.38313 7.04978C1.33283 7.10008 1.30768 7.16436 1.30768 7.2426V15.424C1.30768 15.5023 1.33283 15.5666 1.38313 15.6169C1.43343 15.6672 1.49771 15.6923 1.57595 15.6923ZM6.53847 12.8589C6.96208 12.8589 7.32225 12.7106 7.61898 12.4138C7.91573 12.1171 8.0641 11.7569 8.0641 11.3333C8.0641 10.9097 7.91573 10.5495 7.61898 10.2528C7.32225 9.95607 6.96208 9.8077 6.53847 9.8077C6.11487 9.8077 5.7547 9.95607 5.45796 10.2528C5.16122 10.5495 5.01285 10.9097 5.01285 11.3333C5.01285 11.7569 5.16122 12.1171 5.45796 12.4138C5.7547 12.7106 6.11487 12.8589 6.53847 12.8589ZM3.92307 5.66665H9.15387V3.92305C9.15387 3.19655 8.8996 2.57903 8.39105 2.07048C7.8825 1.56193 7.26497 1.30765 6.53847 1.30765C5.81197 1.30765 5.19445 1.56193 4.6859 2.07048C4.17735 2.57903 3.92307 3.19655 3.92307 3.92305V5.66665Z" fill="#098BED"/>
</svg>
