<svg width="16" height="2" viewBox="0 0 16 2" fill="none" xmlns="http://www.w3.org/2000/svg">
<path d="M0.937798 0.0938086L6.99699 0.0624518H12V0.0365605L15.0524 0.0207639C15.3024 0.0195078 15.5427 0.117594 15.7204 0.293455C15.8981 0.469316 15.9987 0.708552 16 0.95855C16.0012 1.20855 15.9032 1.44881 15.7273 1.6265C15.5514 1.80419 15.3122 1.90476 15.0622 1.90609L8.94754 1.93774L8.94757 1.9434L5.36133 1.95308V1.9563L0.947556 1.97914C0.697557 1.9804 0.457294 1.88231 0.279604 1.70645C0.101913 1.53059 0.00134345 1.29135 1.19157e-05 1.04135C-0.00124412 0.791353 0.0968439 0.55109 0.272705 0.3734C0.448566 0.195709 0.6878 0.0951402 0.937798 0.0938086Z" fill="#2C3139"/>
</svg>
