<svg width="60" height="17" viewBox="0 0 60 17" fill="none" xmlns="http://www.w3.org/2000/svg">
<path d="M9.71332 1.67956C9.50794 1.34433 9.23147 1.05589 8.9155 0.829806C8.59163 0.611522 8.24407 0.440013 7.87281 0.330871C7.46995 0.198341 7.05129 0.112585 6.62473 0.0736059C6.12709 0.0268306 5.62944 0.00344352 5.13179 0.00344352H0.826729C0.415971 -0.0355358 0.0526089 0.260708 0.0131129 0.673889C0.0131129 0.681685 0.0131129 0.689479 0.0131129 0.697275C0.0131129 0.697275 0.0131129 0.720663 0.0131129 0.736255V7.6356C0.613451 8.89853 1.60085 9.94317 2.84102 10.6136V9.22596C2.80153 8.77379 3.14119 8.384 3.59145 8.34502H4.88691C6.64843 8.34502 7.99129 7.97862 8.9234 7.2536C9.8555 6.52859 10.3216 5.44496 10.3374 4.01832C10.3374 3.60513 10.29 3.19195 10.1873 2.79436C10.0846 2.38898 9.9266 2.02257 9.71332 1.67956ZM7.18558 5.22668C7.03549 5.48394 6.81432 5.68663 6.54574 5.81916C6.25347 5.95949 5.93751 6.03745 5.62154 6.06083C5.26607 6.10761 4.91061 6.1232 4.55515 6.1232H3.31497C3.0148 6.1232 2.83312 5.88153 2.83312 5.53851V2.69302C2.81733 2.45914 2.99901 2.25645 3.23598 2.24086C3.25968 2.24086 3.29128 2.24086 3.31497 2.24086H4.55515C4.95801 2.24086 5.33717 2.24865 5.69263 2.27204C6.0086 2.28763 6.32457 2.36559 6.60894 2.49032C6.87751 2.60726 7.09869 2.80216 7.24087 3.05163C7.40675 3.38685 7.47785 3.75326 7.46205 4.11966C7.46995 4.50945 7.37516 4.89145 7.18558 5.22668ZM2.84102 11.019C1.78253 10.637 0.810931 10.0367 0.00521326 9.25714V12.5938C-0.0342827 12.851 0.155298 13.0927 0.415971 13.1317C0.42387 13.1317 0.43177 13.1317 0.439669 13.1317H2.38287C2.89632 13.1317 2.84102 12.586 2.84102 12.586V11.019ZM29.5956 3.63632H27.9131C27.5813 3.61293 27.2811 3.83122 27.21 4.15085L25.2589 9.45204C25.2589 9.45204 23.5369 4.6186 23.4105 4.2444C23.3394 3.88579 23.0235 3.63632 22.6522 3.62852H21.104C20.551 3.62852 20.551 4.0573 20.6221 4.22101C20.6932 4.38472 22.8102 10.1069 23.6396 12.2975C23.766 12.5704 23.8608 12.851 23.9082 13.1473C23.8529 13.4357 23.7423 13.7164 23.5843 13.9658C23.5211 14.0672 23.45 14.1685 23.371 14.2621C24.9667 13.7943 26.8151 12.087 27.7472 10.2472C28.6872 7.69797 29.9195 4.29897 29.9747 4.11966C30.03 3.8546 30.03 3.63632 29.5956 3.63632ZM22.1071 14.7766C21.965 14.7766 21.8228 14.761 21.6727 14.7454C21.4989 14.722 21.1592 14.7454 21.1592 15.0417V16.3202C21.1592 16.8113 21.4041 16.8425 21.5226 16.8737C21.9176 16.9595 22.3283 17.0062 22.7391 16.9984C23.2209 17.014 23.7028 16.9127 24.1372 16.71C24.5401 16.5073 24.8956 16.2344 25.1799 15.8914C25.5117 15.5172 25.7882 15.1118 26.0093 14.6675C26.2463 14.1997 26.4754 13.6774 26.6887 13.1083L26.9415 12.4301C26.4517 12.929 24.2478 14.9871 22.1071 14.7766ZM19.5715 5.16431C19.4767 4.94602 19.3582 4.75113 19.2002 4.57182C19.0423 4.40811 18.8685 4.26778 18.671 4.14305C18.4656 4.00272 18.2365 3.88579 18.0075 3.78444C17.7705 3.69089 17.5256 3.62073 17.2807 3.56616C16.9964 3.50379 16.712 3.46481 16.4197 3.44142C16.1117 3.41024 15.7641 3.39465 15.377 3.39465C12.8098 3.39465 11.3485 4.18983 10.993 5.78798C10.9377 6.01406 11.072 6.24793 11.309 6.3025C11.3327 6.3103 11.3563 6.3103 11.3721 6.3103H12.952C13.3864 6.3103 13.3864 6.17777 13.5444 5.81137C13.6155 5.60867 13.7419 5.43716 13.9157 5.31243C14.3185 5.05517 14.8004 4.93823 15.2743 4.96941C15.7246 4.92264 16.167 5.03178 16.5461 5.28125C16.8305 5.54631 16.9964 5.90492 17.0122 6.29471C17.0122 6.82483 16.8463 7.16785 16.1828 7.16785C14.6108 7.11328 12.9204 7.28479 11.9725 7.8305C11.0167 8.40739 10.4479 9.43645 10.4795 10.5435C10.4716 10.9644 10.5585 11.3854 10.7323 11.7674C10.8982 12.1026 11.1431 12.3911 11.4432 12.6172C11.7592 12.8666 12.1226 13.0615 12.5096 13.1707C12.952 13.2876 13.4022 13.3422 13.8604 13.3422C14.4765 13.35 15.0848 13.2642 15.6772 13.0849C16.1986 12.8744 16.6883 12.6016 17.1386 12.2741V12.5704C17.1386 12.8666 17.2254 13.1239 17.573 13.1239H19.4056C19.7769 13.1239 19.8638 12.8666 19.8638 12.5392V6.97295C19.8638 6.62214 19.8401 6.27912 19.7927 5.9361C19.7532 5.67884 19.6742 5.41378 19.5715 5.16431ZM17.0675 10.6292C17.0675 10.6292 16.5935 11.6037 14.911 11.6037C14.5081 11.6193 14.1132 11.5101 13.7735 11.2919C13.4733 11.058 13.3074 10.6994 13.339 10.3252C13.2996 9.81844 13.5839 9.34289 14.05 9.12461C14.7293 8.86735 15.456 8.75041 16.1828 8.7738C16.6093 8.71143 17.0043 8.99987 17.0675 9.42085C17.0754 9.45983 17.0754 9.49881 17.0754 9.53779L17.0675 10.6292Z" fill="#333333"/>
<path d="M59.6716 6.44658C60.111 7.13325 60.111 8.0072 59.6716 8.69388C59.2321 9.34154 56.859 11.8151 56.0759 12.611C55.3968 13.2977 54.4779 14 53.567 14H34.7099C32.161 14 32.0012 13.1495 32.0012 11.2533V3.5126C32.0012 1.56963 32.5925 1 34.3343 1H53.6069C54.5098 1 55.3169 1.45258 56.2198 2.35774C57.0188 3.13805 59.352 5.9862 59.6716 6.44658Z" fill="#33CCCC"/>
<path d="M36.0006 2.63497V2.57975C36.0006 2.28528 36.0006 2 35.4524 2H33.489C33.0305 2 33.0006 2.23006 33.0006 2.58896V5C33.778 3.99693 34.8046 3.18712 36.0006 2.63497Z" fill="white"/>
<path d="M45.998 11.4563V11.3427V6.21371C45.998 4.07124 45.0635 3 43.2024 3C42.6833 3.00812 42.1801 3.16231 41.7408 3.44635C41.2616 3.75473 40.8303 4.13616 40.4628 4.58251C40.2951 4.1037 39.9756 3.68981 39.5603 3.422C39.0811 3.15419 38.5379 3.02435 37.9868 3.04869C37.1801 3.04869 36.3974 3.32462 35.7584 3.82777C35.6226 3.96574 33.0028 6.04328 33.0028 8.20198V11.4806C33.0028 11.5861 32.9469 11.9838 33.3942 11.9838H35.0395C35.5507 11.9838 35.5028 11.6429 35.5028 11.505V6.19747C35.7744 5.82417 36.3415 4.92336 37.268 4.92336C37.5715 4.89901 37.867 5.03697 38.0347 5.28855C38.2184 5.66997 38.2983 6.09197 38.2664 6.50586V10.6447V11.4968C38.2664 11.6023 38.2105 12 38.6577 12H40.2712C40.7823 12 40.7344 11.6592 40.7344 11.5212V11.4076V6.18936C41.0299 5.81605 41.605 4.91524 42.4996 4.91524C42.8031 4.89089 43.0986 5.02886 43.2823 5.28043C43.474 5.65374 43.5539 6.08386 43.5219 6.49775V10.6366V11.4887C43.5219 11.5942 43.466 11.9919 43.9133 11.9919H45.5587C46.0619 11.927 45.998 11.5861 45.998 11.4563Z" fill="white"/>
<path d="M54.7941 9.72764C54.2266 11.1577 52.7448 12.0765 51.1212 11.995C48.6463 11.995 46.999 10.4093 46.999 8.03824C46.999 5.66716 48.7173 4 51.0345 4C53.3517 4 54.9044 5.51156 54.999 7.94933C54.999 8.26054 54.9202 8.53469 54.5025 8.53469H49.2532C49.2847 9.83878 49.9547 10.5575 51.137 10.5575C51.7833 10.5723 52.3744 10.2389 52.6581 9.69059C52.7685 9.53499 52.9576 9.44607 53.1547 9.45349H54.5104C54.6601 9.44607 54.7862 9.55722 54.7941 9.698C54.7941 9.72023 54.7941 9.73505 54.7941 9.75728V9.72764ZM51.0424 5.49674C50.0572 5.49674 49.3951 6.14138 49.2453 7.20096H52.7685C52.6818 6.27475 52.1537 5.49674 51.0424 5.49674Z" fill="white"/>
</svg>
