<svg width="16" height="16" viewBox="0 0 16 16" fill="none" xmlns="http://www.w3.org/2000/svg">
<path d="M16 7.9586C15.9987 7.7086 15.8981 7.46936 15.7204 7.2935C15.5427 7.11764 15.3024 7.01956 15.0524 7.02081L8.93779 7.05246L8.90614 0.937799C8.90481 0.6878 8.80424 0.448565 8.62655 0.272704C8.44886 0.0968433 8.2086 -0.00124412 7.9586 1.19158e-05C7.7086 0.00134345 7.46937 0.101912 7.2935 0.279603C7.11764 0.457294 7.01956 0.697557 7.02081 0.947556L7.05246 7.06221L0.937798 7.09386C0.6878 7.09519 0.448566 7.19576 0.272705 7.37345C0.0968439 7.55114 -0.00124412 7.7914 1.19157e-05 8.0414C0.00134345 8.2914 0.101913 8.53063 0.279604 8.7065C0.457294 8.88236 0.697557 8.98044 0.947556 8.97919L7.06221 8.94754L7.09386 15.0622C7.09519 15.3122 7.19576 15.5514 7.37345 15.7273C7.55114 15.9032 7.7914 16.0012 8.0414 16C8.2914 15.9987 8.53063 15.8981 8.7065 15.7204C8.88236 15.5427 8.98044 15.3024 8.97919 15.0524L8.94754 8.93779L15.0622 8.90614C15.3122 8.90481 15.5514 8.80424 15.7273 8.62655C15.9032 8.44886 16.0012 8.2086 16 7.9586Z" fill="#2C3139"/>
</svg>
