<svg width="26" height="26" viewBox="0 0 26 26" fill="none" xmlns="http://www.w3.org/2000/svg">
<path d="M13 12.6666C11.9573 12.6666 11.0647 12.2954 10.3221 11.5529C9.5796 10.8103 9.20833 9.91771 9.20833 8.87501C9.20833 7.83231 9.5796 6.93969 10.3221 6.19718C11.0647 5.45464 11.9573 5.08337 13 5.08337C14.0427 5.08337 14.9353 5.45464 15.6778 6.19718C16.4203 6.93969 16.7916 7.83231 16.7916 8.87501C16.7916 9.91771 16.4203 10.8103 15.6778 11.5529C14.9353 12.2954 14.0427 12.6666 13 12.6666ZM4.875 19.2708V18.5083C4.875 17.9778 5.0191 17.4865 5.3073 17.0344C5.59549 16.5823 5.98055 16.2347 6.46249 15.9917C7.53333 15.4667 8.61354 15.0729 9.70312 14.8104C10.7927 14.5479 11.8917 14.4167 13 14.4167C14.1083 14.4167 15.2072 14.5479 16.2968 14.8104C17.3864 15.0729 18.4666 15.4667 19.5375 15.9917C20.0194 16.2347 20.4045 16.5823 20.6926 17.0344C20.9808 17.4865 21.1249 17.9778 21.1249 18.5083V19.2708C21.1249 19.7277 20.9649 20.1163 20.6447 20.4364C20.3246 20.7565 19.9361 20.9166 19.4791 20.9166H6.5208C6.06387 20.9166 5.67534 20.7565 5.35521 20.4364C5.03507 20.1163 4.875 19.7277 4.875 19.2708ZM6.49997 19.2916H19.5V18.5083C19.5 18.2889 19.4364 18.0857 19.3093 17.8989C19.1823 17.7121 19.0097 17.5597 18.7916 17.4416C17.8583 16.9819 16.9066 16.6337 15.9366 16.3968C14.9665 16.16 13.9876 16.0416 13 16.0416C12.0123 16.0416 11.0334 16.16 10.0634 16.3968C9.09333 16.6337 8.14164 16.9819 7.20831 17.4416C6.99025 17.5597 6.81769 17.7121 6.69061 17.8989C6.56352 18.0857 6.49997 18.2889 6.49997 18.5083V19.2916ZM13 11.0417C13.5958 11.0417 14.1059 10.8295 14.5302 10.4052C14.9545 9.98092 15.1666 9.47085 15.1666 8.87501C15.1666 8.27918 14.9545 7.76911 14.5302 7.34481C14.1059 6.9205 13.5958 6.70835 13 6.70835C12.4041 6.70835 11.8941 6.9205 11.4698 7.34481C11.0455 7.76911 10.8333 8.27918 10.8333 8.87501C10.8333 9.47085 11.0455 9.98092 11.4698 10.4052C11.8941 10.8295 12.4041 11.0417 13 11.0417Z" fill="#7784A4"/>
</svg>
