<svg width="15" height="12" viewBox="0 0 15 12" fill="none" xmlns="http://www.w3.org/2000/svg">
<path d="M2.31067 5.79167L5.07992 8.56094C5.20385 8.68486 5.26502 8.82988 5.26342 8.99602C5.26181 9.16215 5.19637 9.30984 5.06711 9.43911C4.93783 9.55984 4.79146 9.62234 4.628 9.62661C4.46454 9.63088 4.31818 9.56838 4.18892 9.43911L0.443732 5.69392C0.293093 5.54328 0.217773 5.36754 0.217773 5.16669C0.217773 4.96584 0.293093 4.7901 0.443732 4.63946L4.18892 0.894273C4.30429 0.778884 4.44718 0.719856 4.61759 0.717189C4.78799 0.714509 4.93783 0.773537 5.06711 0.894273C5.19637 1.02354 5.261 1.17204 5.261 1.33977C5.261 1.50749 5.19637 1.656 5.06711 1.78527L2.31067 4.54171H10.1248C11.2188 4.54171 12.152 4.92793 12.9244 5.70036C13.6969 6.47279 14.0831 7.40601 14.0831 8.50002V10.7917C14.0831 10.969 14.0233 11.1175 13.9036 11.2372C13.784 11.3568 13.6355 11.4167 13.4581 11.4167C13.2808 11.4167 13.1323 11.3568 13.0126 11.2372C12.893 11.1175 12.8331 10.969 12.8331 10.7917V8.50002C12.8331 7.75216 12.5687 7.1138 12.0399 6.58494C11.511 6.05609 10.8726 5.79167 10.1248 5.79167H2.31067Z" fill="#098BED"/>
</svg>
