<svg width="21" height="12" viewBox="0 0 21 12" fill="none" xmlns="http://www.w3.org/2000/svg">
<path d="M10.7632 5.2836C10.6831 5.1579 10.5799 5.043 10.4535 4.9452C8.31533 3.29083 5.92786 1.98683 3.38033 1.08204L2.91428 0.916519C2.04464 0.607649 1.12535 1.19604 1.00752 2.09448C0.67067 4.663 0.67067 7.337 1.00752 9.9055C1.12535 10.8039 2.04464 11.3923 2.91428 11.0835L3.38033 10.9179C5.92786 10.0131 8.31533 8.7091 10.4535 7.0547C10.5799 6.9569 10.6831 6.8421 10.7632 6.7164C10.7883 7.7874 10.8698 8.8553 11.0075 9.9055C11.1253 10.8039 12.0446 11.3923 12.9142 11.0835L13.3803 10.9179C15.9278 10.0131 18.3153 8.7091 20.4535 7.0547C21.1435 6.5208 21.1435 5.4791 20.4535 4.9452C18.3153 3.29083 15.9278 1.98683 13.3803 1.08204L12.9142 0.916519C12.0446 0.607649 11.1253 1.19604 11.0075 2.09448C10.8698 3.14469 10.7883 4.2125 10.7632 5.2836Z" fill="white"/>
</svg>
