<svg width="17" height="16" viewBox="0 0 17 16" fill="none" xmlns="http://www.w3.org/2000/svg">
<path fill-rule="evenodd" clip-rule="evenodd" d="M12.9672 1.69095C12.7973 0.33147 11.1912 -0.302299 10.1387 0.574801L5.798 4.19207C5.75307 4.22951 5.69643 4.25001 5.63795 4.25001H2C1.0335 4.25001 0.25 5.03351 0.25 6V10C0.25 10.9665 1.0335 11.75 2 11.75H5.63795C5.69643 11.75 5.75307 11.7705 5.798 11.808L10.1387 15.4252C11.1912 16.3023 12.7973 15.6686 12.9672 14.3091C13.4909 10.1193 13.4909 5.88069 12.9672 1.69095ZM11.099 1.72713C11.2403 1.60936 11.456 1.69446 11.4788 1.87701C11.9871 5.94319 11.9871 10.0568 11.4788 14.123C11.456 14.3056 11.2403 14.3907 11.099 14.2729L6.75827 10.6556C6.44377 10.3935 6.04734 10.25 5.63795 10.25H2C1.86193 10.25 1.75 10.1381 1.75 10V6C1.75 5.86194 1.86193 5.75001 2 5.75001H5.63795C6.04734 5.75001 6.44377 5.60648 6.75827 5.3444L11.099 1.72713Z" fill="white"/>
<path d="M16.0323 3.94771C15.8894 3.55891 15.4585 3.35953 15.0697 3.50238C14.6809 3.64524 14.4815 4.07623 14.6243 4.46503C15.0288 5.56596 15.25 6.7563 15.25 8C15.25 9.0316 15.0978 10.0264 14.8152 10.9637C14.7995 11.0159 14.7833 11.068 14.7668 11.1198C14.7222 11.2595 14.6747 11.398 14.6243 11.535C14.4815 11.9238 14.6809 12.3548 15.0697 12.4977C15.4585 12.6405 15.8894 12.4411 16.0323 12.0523C16.0901 11.8951 16.1446 11.7362 16.1958 11.5759C16.2148 11.5163 16.2333 11.4566 16.2514 11.3967C16.5759 10.3204 16.75 9.1799 16.75 8C16.75 6.5772 16.4968 5.21188 16.0323 3.94771Z" fill="white"/>
</svg>
