<svg width="81" height="80" viewBox="0 0 81 80" fill="none" xmlns="http://www.w3.org/2000/svg">
<g clip-path="url(#clip0_1372_6794)">
<path d="M40.5 80C62.5914 80 80.5 62.0914 80.5 40C80.5 17.9086 62.5914 0 40.5 0C18.4086 0 0.5 17.9086 0.5 40C0.5 62.0914 18.4086 80 40.5 80Z" fill="#EEF8FF"/>
<path d="M33.0898 46.6948L27.5641 41.1692C27.3658 40.9709 27.268 40.7389 27.2705 40.4731C27.2731 40.2073 27.3778 39.9709 27.5846 39.7641C27.7914 39.5709 28.0256 39.4709 28.2872 39.4641C28.5487 39.4573 28.7829 39.5573 28.9897 39.7641L33.9538 44.7282L34.4154 44.2667L35.8205 45.6718L34.7769 46.6948C34.5359 46.9222 34.2547 47.0393 33.9333 47.0461C33.612 47.0529 33.3308 46.9358 33.0898 46.6948ZM40.6231 46.6948L35.0975 41.1692C34.9128 40.9846 34.8184 40.756 34.8141 40.4833C34.8098 40.2107 34.9043 39.9709 35.0975 39.7641C35.3043 39.5573 35.5419 39.4539 35.8103 39.4539C36.0786 39.4539 36.3162 39.5573 36.5231 39.7641L41.4667 44.7077L53.0308 33.1436C53.2291 32.9453 53.4611 32.8474 53.7269 32.85C53.9927 32.8526 54.229 32.9573 54.4359 33.1641C54.629 33.3709 54.729 33.6051 54.7359 33.8667C54.7427 34.1282 54.6427 34.3624 54.4359 34.5692L42.3102 46.6948C42.0692 46.9358 41.788 47.0564 41.4667 47.0564C41.1453 47.0564 40.8641 46.9358 40.6231 46.6948ZM41.0051 40.4667L39.5795 39.0616L45.4769 33.1641C45.6615 32.9795 45.8902 32.8851 46.1628 32.8808C46.4355 32.8765 46.6752 32.9709 46.882 33.1641C47.0889 33.3709 47.1923 33.6085 47.1923 33.8769C47.1923 34.1453 47.0889 34.3829 46.882 34.5897L41.0051 40.4667Z" fill="#098BED"/>
</g>
<defs>
<clipPath id="clip0_1372_6794">
<rect width="80" height="80" fill="white" transform="translate(0.5)"/>
</clipPath>
</defs>
</svg>
