<svg width="15" height="20" viewBox="0 0 15 20" fill="none" xmlns="http://www.w3.org/2000/svg">
<path fill-rule="evenodd" clip-rule="evenodd" d="M6.05849 1.87607C5.81099 1.91213 5.56859 1.97709 5.33619 2.0696C3.95297 2.62032 3.13237 4.05231 3.35653 5.52416L3.38757 5.72797C3.42604 5.9805 3.49235 6.228 3.58531 6.46593L4.5002 8.80763C6.68939 8.65883 8.88679 8.67173 11.0746 8.84633L12.5707 8.96573C13.5388 9.04303 14.3293 9.77083 14.4862 10.7292C14.8479 12.9381 14.8479 15.1911 14.4862 17.4C14.3293 18.3584 13.5388 19.0861 12.5707 19.1634L11.0746 19.2829C8.71239 19.4714 6.33899 19.4714 3.97687 19.2829L2.48074 19.1634C1.51264 19.0861 0.722143 18.3584 0.565213 17.4C0.203523 15.1911 0.203523 12.9381 0.565213 10.7292C0.722143 9.77083 1.51264 9.04303 2.48074 8.96573L2.93732 8.92933L2.18816 7.01179C2.05489 6.67068 1.95982 6.31586 1.90467 5.95382L1.87363 5.75001C1.54438 3.58817 2.74968 1.48489 4.78134 0.676004C5.12262 0.540114 5.47866 0.444714 5.84219 0.391754C8.00609 0.0764536 10.1015 1.29529 10.8973 3.33212L10.9723 3.52414C11.1056 3.86525 11.2007 4.22007 11.2558 4.58212L11.3972 5.51013C11.4387 5.78312 11.2511 6.03813 10.9781 6.07971L10.4838 6.155C10.2109 6.19657 9.95579 6.00897 9.91429 5.73598L9.77289 4.80797C9.73449 4.55543 9.66809 4.30793 9.57519 4.07L9.50019 3.87798C8.95839 2.49124 7.53169 1.66141 6.05849 1.87607ZM7.52569 12.5646C6.69729 12.5646 6.02569 13.2362 6.02569 14.0646C6.02569 14.893 6.69729 15.5646 7.52569 15.5646C8.35409 15.5646 9.02569 14.893 9.02569 14.0646C9.02569 13.2362 8.35409 12.5646 7.52569 12.5646Z" fill="white"/>
</svg>
