<svg xmlns="http://www.w3.org/2000/svg" width="2250" height="2250" viewBox="0 0 2250 2250" version="1.1"><path d="" stroke="none" fill="#7804fc" fill-rule="evenodd"/><path d="M 510.500 887.598 C 508.300 887.819, 501.458 888.694, 495.296 889.543 C 489.134 890.392, 478.784 892.385, 472.296 893.971 C 465.808 895.558, 455.775 898.506, 450 900.523 C 444.225 902.541, 432.750 907.473, 424.500 911.483 C 416.250 915.494, 404.471 922.145, 398.324 926.263 C 392.178 930.381, 383.628 936.616, 379.324 940.120 C 375.021 943.623, 367.772 950.056, 363.216 954.415 C 358.660 958.774, 351.235 966.794, 346.716 972.237 C 342.197 977.680, 334.985 987.391, 330.689 993.817 C 326.394 1000.243, 319.789 1011.800, 316.013 1019.500 C 312.238 1027.200, 307.531 1037.892, 305.554 1043.259 C 303.578 1048.627, 300.665 1058.077, 299.081 1064.259 C 297.497 1070.442, 295.470 1079.775, 294.575 1085 C 293.680 1090.225, 292.419 1101.362, 291.772 1109.750 C 290.872 1121.434, 290.872 1128.566, 291.772 1140.250 C 292.419 1148.637, 293.680 1159.775, 294.575 1165 C 295.470 1170.225, 297.497 1179.558, 299.081 1185.741 C 300.665 1191.923, 303.578 1201.373, 305.554 1206.741 C 307.531 1212.108, 312.238 1222.800, 316.013 1230.500 C 319.789 1238.200, 326.394 1249.757, 330.689 1256.183 C 334.985 1262.609, 342.197 1272.320, 346.716 1277.763 C 351.235 1283.206, 358.660 1291.226, 363.216 1295.585 C 367.772 1299.944, 375.021 1306.377, 379.324 1309.880 C 383.628 1313.384, 392.178 1319.619, 398.324 1323.737 C 404.471 1327.855, 416.250 1334.510, 424.500 1338.525 C 432.750 1342.540, 444.675 1347.607, 451 1349.783 C 457.325 1351.960, 467.450 1354.912, 473.500 1356.343 C 479.550 1357.773, 489 1359.636, 494.500 1360.482 C 500 1361.327, 511.925 1362.300, 521 1362.645 C 531.233 1363.033, 542.248 1362.814, 550 1362.069 C 556.875 1361.408, 568.350 1359.734, 575.500 1358.350 C 582.650 1356.966, 595.303 1353.597, 603.618 1350.865 C 611.933 1348.132, 624.983 1342.845, 632.618 1339.115 C 640.253 1335.385, 650.325 1329.944, 655 1327.024 C 659.675 1324.105, 667.666 1318.596, 672.757 1314.782 C 677.849 1310.969, 686.989 1303.082, 693.069 1297.256 C 699.149 1291.430, 707.362 1282.802, 711.320 1278.082 C 715.278 1273.362, 721.042 1265.900, 724.129 1261.500 C 727.215 1257.100, 732.339 1249, 735.514 1243.500 C 738.689 1238, 743.504 1228.550, 746.214 1222.500 C 748.923 1216.450, 752.867 1206.325, 754.978 1200 C 757.088 1193.675, 759.983 1183.266, 761.410 1176.869 C 762.837 1170.472, 764.732 1158.997, 765.620 1151.369 C 766.819 1141.075, 767.094 1132.603, 766.688 1118.500 C 766.387 1108.050, 765.402 1094.802, 764.500 1089.060 C 763.597 1083.317, 761.371 1072.742, 759.554 1065.560 C 757.737 1058.377, 754.584 1048, 752.547 1042.500 C 750.511 1037, 745.981 1026.650, 742.481 1019.500 C 738.982 1012.350, 732.577 1001.100, 728.248 994.500 C 723.919 987.900, 716.986 978.450, 712.840 973.500 C 708.695 968.550, 700.848 960.128, 695.402 954.784 C 689.956 949.441, 682.350 942.542, 678.500 939.453 C 674.650 936.364, 666.231 930.327, 659.792 926.037 C 653.352 921.747, 642.102 915.300, 634.792 911.712 C 627.481 908.123, 616.550 903.389, 610.500 901.192 C 604.450 898.996, 593.875 895.817, 587 894.129 C 580.125 892.441, 569.775 890.346, 564 889.472 C 558.166 888.590, 544.834 887.731, 534 887.541 C 523.275 887.352, 512.700 887.378, 510.500 887.598 M 508.250 969.737 L 503 970.105 503 1033.052 L 503 1096 529.500 1096 L 556 1096 556 1033.148 L 556 970.296 547.750 969.654 C 543.212 969.301, 533.650 969.093, 526.500 969.191 C 519.350 969.289, 511.137 969.535, 508.250 969.737 M 1697 1028.888 C 1692.325 1029.901, 1685.041 1032.116, 1680.814 1033.810 C 1676.587 1035.503, 1670.201 1038.737, 1666.624 1040.996 C 1663.046 1043.255, 1656.551 1048.874, 1652.189 1053.482 C 1646.036 1059.982, 1643.245 1063.949, 1639.739 1071.180 C 1637.254 1076.306, 1634.509 1083.200, 1633.639 1086.500 C 1632.770 1089.800, 1631.599 1096.550, 1631.037 1101.500 C 1630.461 1106.585, 1630.013 1135.406, 1630.008 1167.750 L 1630 1225 1658.500 1225 L 1687 1225 1687.017 1170.250 C 1687.031 1127.084, 1687.332 1114.097, 1688.440 1108.869 C 1689.213 1105.222, 1690.961 1100.047, 1692.323 1097.369 C 1693.686 1094.691, 1696.533 1090.768, 1698.650 1088.650 C 1700.768 1086.533, 1704.575 1083.745, 1707.111 1082.454 C 1709.648 1081.163, 1714.732 1079.583, 1718.411 1078.942 C 1722.339 1078.258, 1727.773 1078.064, 1731.581 1078.472 C 1735.904 1078.935, 1740.345 1080.308, 1744.913 1082.593 C 1748.884 1084.580, 1753.533 1087.939, 1755.972 1090.585 C 1758.286 1093.096, 1761.376 1097.704, 1762.840 1100.825 L 1765.500 1106.500 1765.773 1165.750 L 1766.046 1225 1794.523 1225 L 1823 1225 1823.017 1170.250 C 1823.031 1127.034, 1823.331 1114.100, 1824.443 1108.856 C 1825.217 1105.202, 1826.804 1100.344, 1827.969 1098.061 C 1829.134 1095.778, 1831.717 1092.105, 1833.710 1089.900 C 1835.702 1087.694, 1839.180 1084.807, 1841.439 1083.483 C 1843.697 1082.160, 1848.685 1080.339, 1852.522 1079.438 C 1857.329 1078.309, 1861.592 1077.987, 1866.225 1078.404 C 1869.924 1078.737, 1875.414 1079.931, 1878.427 1081.058 C 1881.439 1082.185, 1886.161 1085.138, 1888.921 1087.619 C 1892.006 1090.392, 1895.104 1094.513, 1896.964 1098.315 C 1898.628 1101.717, 1900.442 1106.924, 1900.995 1109.886 C 1901.591 1113.080, 1902 1137.607, 1902 1170.136 L 1902 1225 1930.554 1225 L 1959.108 1225 1958.768 1160.750 L 1958.429 1096.500 1955.779 1086.776 C 1954.321 1081.428, 1951.305 1073.553, 1949.077 1069.276 C 1946.849 1064.999, 1942.999 1059.025, 1940.521 1056 C 1938.044 1052.975, 1933.425 1048.334, 1930.258 1045.686 C 1927.091 1043.039, 1920.450 1038.891, 1915.500 1036.469 C 1910.550 1034.046, 1902.450 1031.037, 1897.500 1029.782 C 1889.593 1027.777, 1886.132 1027.507, 1869 1027.559 C 1852.194 1027.610, 1848.395 1027.920, 1841.500 1029.799 C 1837.100 1030.999, 1829.450 1033.990, 1824.500 1036.445 C 1819.550 1038.901, 1812.898 1042.973, 1809.718 1045.495 C 1806.538 1048.016, 1801.874 1052.736, 1799.352 1055.982 L 1794.768 1061.886 1790.867 1056.951 C 1788.722 1054.237, 1783.958 1049.535, 1780.282 1046.503 C 1776.606 1043.470, 1769.526 1038.987, 1764.549 1036.539 C 1759.572 1034.091, 1751.900 1031.101, 1747.500 1029.893 C 1741.062 1028.127, 1736.180 1027.634, 1722.500 1027.371 C 1708.810 1027.108, 1703.845 1027.403, 1697 1028.888 M 423 1031.484 C 417.225 1032.755, 408 1034.958, 402.500 1036.380 C 397 1037.802, 389.125 1040.005, 385 1041.276 L 377.500 1043.587 377.500 1096.043 C 377.500 1142.849, 377.696 1149.466, 379.322 1157.464 C 380.325 1162.394, 382.515 1170.719, 384.191 1175.964 C 385.866 1181.209, 389.215 1189.742, 391.632 1194.926 C 394.050 1200.110, 398.912 1208.660, 402.436 1213.926 C 405.961 1219.192, 411.651 1226.650, 415.080 1230.500 C 418.509 1234.350, 424.506 1240.344, 428.407 1243.819 C 432.308 1247.295, 439.808 1253.026, 445.074 1256.555 C 450.340 1260.085, 458.890 1264.950, 464.074 1267.368 C 469.258 1269.785, 477.791 1273.134, 483.036 1274.809 C 488.281 1276.485, 496.606 1278.672, 501.536 1279.669 C 508.433 1281.065, 514.997 1281.474, 530 1281.442 C 546.235 1281.408, 551.134 1281.038, 559.259 1279.232 C 564.626 1278.039, 573.151 1275.678, 578.204 1273.985 C 583.257 1272.292, 591.827 1268.686, 597.248 1265.973 C 602.669 1263.259, 611.109 1258.296, 616.004 1254.943 C 620.898 1251.591, 628.995 1244.995, 633.997 1240.287 C 638.999 1235.578, 646.607 1227.044, 650.904 1221.322 C 655.200 1215.599, 660.976 1206.549, 663.738 1201.209 C 666.501 1195.869, 669.999 1188.350, 671.513 1184.500 C 673.026 1180.650, 675.527 1172.499, 677.070 1166.386 C 678.614 1160.274, 680.380 1149.699, 680.995 1142.886 C 681.680 1135.304, 681.995 1113.683, 681.807 1087.137 L 681.500 1043.774 675.500 1041.891 C 672.200 1040.855, 664.550 1038.670, 658.500 1037.034 C 652.450 1035.398, 642.220 1032.921, 635.767 1031.530 C 629.314 1030.138, 623.576 1029, 623.017 1029 C 622.340 1029, 621.999 1048.115, 621.997 1086.250 C 621.995 1118.273, 621.530 1148.567, 620.942 1155 C 620.364 1161.325, 618.745 1171.666, 617.344 1177.980 C 615.943 1184.294, 613.456 1192.844, 611.818 1196.980 C 610.180 1201.116, 607.495 1206.860, 605.850 1209.744 C 604.206 1212.628, 600.782 1217.752, 598.242 1221.131 C 595.702 1224.510, 590.313 1229.906, 586.266 1233.122 C 582.219 1236.338, 575.666 1240.520, 571.704 1242.416 C 567.742 1244.311, 560.675 1246.896, 556 1248.160 C 548.522 1250.182, 545.275 1250.452, 529 1250.405 C 513.272 1250.359, 509.301 1250.026, 502.500 1248.185 C 498.100 1246.994, 490.225 1243.916, 485 1241.345 C 476.955 1237.386, 474.121 1235.279, 466.495 1227.585 C 460.141 1221.175, 456.105 1216.018, 452.785 1210.071 C 450.197 1205.434, 446.489 1196.659, 444.545 1190.571 C 442.601 1184.482, 440.260 1175.675, 439.342 1171 C 437.913 1163.720, 437.618 1152.916, 437.285 1095.750 C 436.923 1033.737, 436.775 1029.006, 435.198 1029.086 C 434.264 1029.133, 428.775 1030.212, 423 1031.484 M 924.274 1089.250 C 924.655 1140.860, 924.935 1149.467, 926.445 1156 C 927.398 1160.125, 929.531 1167.014, 931.184 1171.309 C 932.838 1175.604, 936.397 1182.417, 939.094 1186.449 C 941.791 1190.481, 947.745 1197.317, 952.326 1201.640 C 956.957 1206.010, 964.120 1211.471, 968.461 1213.939 C 972.754 1216.381, 980.145 1219.831, 984.884 1221.606 C 989.623 1223.381, 997.100 1225.618, 1001.500 1226.577 C 1007.052 1227.788, 1013.937 1228.323, 1024 1228.324 C 1035.108 1228.325, 1040.619 1227.839, 1047.559 1226.249 C 1052.542 1225.106, 1060.196 1222.792, 1064.568 1221.106 C 1068.940 1219.420, 1076.339 1215.711, 1081.009 1212.863 C 1086.331 1209.617, 1092.672 1204.474, 1098 1199.081 C 1102.675 1194.349, 1108.196 1187.558, 1110.269 1183.989 C 1112.342 1180.420, 1115.371 1174.050, 1116.999 1169.833 C 1118.628 1165.616, 1120.645 1158.245, 1121.480 1153.452 C 1122.721 1146.338, 1123 1134.203, 1123 1087.369 L 1123 1030 1094.538 1030 L 1066.076 1030 1065.788 1088.250 L 1065.500 1146.500 1063.166 1152.282 C 1061.882 1155.463, 1059.392 1159.963, 1057.633 1162.282 C 1055.873 1164.602, 1052.266 1167.958, 1049.618 1169.741 C 1046.969 1171.523, 1042.484 1173.691, 1039.651 1174.559 C 1036.818 1175.426, 1031.125 1176.373, 1027 1176.664 C 1022.068 1177.011, 1016.959 1176.652, 1012.078 1175.614 C 1007.763 1174.697, 1002.385 1172.668, 999.230 1170.768 C 996.245 1168.971, 992.559 1165.925, 991.038 1164 C 989.518 1162.075, 987.467 1158.925, 986.481 1157 C 985.495 1155.075, 983.999 1151.250, 983.155 1148.500 C 981.875 1144.324, 981.562 1134.149, 981.258 1086.750 L 980.894 1030 952.365 1030 L 923.836 1030 924.274 1089.250 M 1163 1053.991 L 1163 1077.983 1216.340 1078.241 L 1269.679 1078.500 1214.340 1127.828 L 1159 1177.156 1159 1201.078 L 1159 1225 1255.500 1225 L 1352 1225 1352 1201.008 L 1352 1177.016 1293.825 1176.758 L 1235.650 1176.500 1290.825 1127.211 L 1346 1077.921 1346 1053.961 L 1346 1030 1254.500 1030 L 1163 1030 1163 1053.991 M 1392 1086.869 C 1392 1132.799, 1392.287 1145.384, 1393.492 1152.295 C 1394.313 1157.002, 1396.387 1164.728, 1398.100 1169.464 C 1399.814 1174.199, 1403.352 1181.320, 1405.964 1185.287 C 1408.575 1189.254, 1412.565 1194.581, 1414.830 1197.125 C 1417.096 1199.668, 1422.223 1204.242, 1426.225 1207.288 C 1430.226 1210.335, 1437.100 1214.627, 1441.500 1216.826 C 1445.900 1219.026, 1452.200 1221.727, 1455.500 1222.829 C 1458.800 1223.932, 1464.875 1225.526, 1469 1226.373 C 1473.125 1227.220, 1480.126 1228.215, 1484.559 1228.584 C 1489.186 1228.970, 1497.016 1228.744, 1502.950 1228.054 C 1508.634 1227.394, 1517.157 1225.746, 1521.892 1224.393 C 1526.626 1223.039, 1534.217 1220.166, 1538.759 1218.008 C 1543.302 1215.849, 1549.152 1212.633, 1551.759 1210.860 C 1554.367 1209.087, 1558.846 1205.653, 1561.713 1203.229 C 1564.580 1200.804, 1569.372 1195.599, 1572.362 1191.660 C 1575.352 1187.722, 1579.465 1181.156, 1581.503 1177.070 C 1583.540 1172.983, 1586.380 1165.333, 1587.814 1160.070 L 1590.422 1150.500 1590.768 1090.250 L 1591.114 1030 1562.610 1030 L 1534.106 1030 1533.742 1086.750 C 1533.431 1135.220, 1533.144 1144.268, 1531.776 1148.764 C 1530.895 1151.659, 1529.021 1155.995, 1527.613 1158.398 C 1526.204 1160.802, 1522.785 1164.806, 1520.016 1167.296 C 1516.720 1170.259, 1512.825 1172.554, 1508.740 1173.938 C 1505.308 1175.102, 1499.314 1176.326, 1495.420 1176.659 C 1491.496 1176.995, 1485.379 1176.749, 1481.695 1176.107 C 1478.040 1175.471, 1473.009 1174.076, 1470.516 1173.007 C 1468.022 1171.938, 1463.794 1169.017, 1461.121 1166.516 C 1458.146 1163.733, 1455.237 1159.692, 1453.626 1156.101 C 1452.177 1152.874, 1450.544 1147.869, 1449.996 1144.980 C 1449.411 1141.892, 1449 1117.118, 1449 1084.864 L 1449 1030 1420.500 1030 L 1392 1030 1392 1086.869" stroke="none" fill="#7404fc" fill-rule="evenodd"/></svg>