<svg width="24" height="25" viewBox="0 0 24 25" fill="none" xmlns="http://www.w3.org/2000/svg">
<path fill-rule="evenodd" clip-rule="evenodd" d="M12.1387 5.47757C13.1912 4.60047 14.7973 5.23424 14.9672 6.59372C15.4909 10.7835 15.4909 15.0221 14.9672 19.2119C14.7973 20.5714 13.1912 21.2051 12.1387 20.328L7.798 16.7108C7.75307 16.6733 7.69643 16.6528 7.63795 16.6528H4C3.0335 16.6528 2.25 15.8693 2.25 14.9028V10.9028C2.25 9.93628 3.0335 9.15278 4 9.15278H7.63795C7.69643 9.15278 7.75307 9.13228 7.798 9.09484L12.1387 5.47757ZM13.4788 6.77978C13.456 6.59723 13.2403 6.51213 13.099 6.6299L8.75827 10.2472C8.44377 10.5093 8.04734 10.6528 7.63795 10.6528H4C3.86193 10.6528 3.75 10.7647 3.75 10.9028V14.9028C3.75 15.0409 3.86193 15.1528 4 15.1528H7.63795C8.04734 15.1528 8.44377 15.2963 8.75827 15.5584L13.099 19.1757C13.2403 19.2935 13.456 19.2084 13.4788 19.0258C13.9871 14.9596 13.9871 10.846 13.4788 6.77978Z" fill="white"/>
<path d="M17.2021 10.6047C17.495 10.3118 17.9699 10.3118 18.2628 10.6047L19.5002 11.8421L20.7376 10.6047C21.0305 10.3118 21.5054 10.3118 21.7983 10.6047C22.0912 10.8976 22.0912 11.3725 21.7983 11.6654L20.5609 12.9028L21.7983 14.1402C22.0912 14.4331 22.0912 14.908 21.7983 15.2009C21.5054 15.4938 21.0305 15.4938 20.7376 15.2009L19.5002 13.9635L18.2628 15.2009C17.9699 15.4938 17.495 15.4938 17.2021 15.2009C16.9092 14.908 16.9092 14.4331 17.2021 14.1402L18.4395 12.9028L17.2021 11.6654C16.9092 11.3725 16.9092 10.8976 17.2021 10.6047Z" fill="white"/>
</svg>
