<svg width="12" height="12" viewBox="0 0 12 12" fill="none" xmlns="http://www.w3.org/2000/svg">
<path d="M6 6.99665L1.20216 11.7945C1.07122 11.9254 0.906627 11.9924 0.708384 11.9954C0.510157 11.9985 0.34254 11.9315 0.205533 11.7945C0.068511 11.6575 0 11.4914 0 11.2962C0 11.101 0.068511 10.9349 0.205533 10.7978L5.00335 6L0.205533 1.20216C0.0745795 1.07122 0.00758942 0.906628 0.00456304 0.708384C0.00152091 0.510157 0.068511 0.34254 0.205533 0.205533C0.34254 0.068511 0.508644 0 0.703845 0C0.899046 0 1.06515 0.068511 1.20216 0.205533L6 5.00335L10.7978 0.205533C10.9288 0.0745795 11.0934 0.00758942 11.2916 0.00456304C11.4898 0.00152091 11.6575 0.068511 11.7945 0.205533C11.9315 0.34254 12 0.508643 12 0.703844C12 0.899046 11.9315 1.06515 11.7945 1.20216L6.99665 6L11.7945 10.7978C11.9254 10.9288 11.9924 11.0934 11.9954 11.2916C11.9985 11.4898 11.9315 11.6575 11.7945 11.7945C11.6575 11.9315 11.4914 12 11.2962 12C11.101 12 10.9349 11.9315 10.7978 11.7945L6 6.99665Z" fill="black"/>
</svg>
